<svg xmlns="http://www.w3.org/2000/svg" xmlns:xlink="http://www.w3.org/1999/xlink" viewBox="0 0 1050.16 733.46"><defs><style>.cls-1{fill:#b5a191;}.cls-1,.cls-11,.cls-12,.cls-13,.cls-14,.cls-2,.cls-3,.cls-4,.cls-5,.cls-6,.cls-7,.cls-8{stroke:#666;}.cls-1,.cls-11,.cls-12,.cls-13,.cls-14,.cls-15,.cls-16,.cls-17,.cls-18,.cls-19,.cls-2,.cls-3,.cls-4,.cls-5,.cls-6,.cls-7,.cls-8{stroke-miterlimit:10;}.cls-1,.cls-11,.cls-12,.cls-13,.cls-14,.cls-2,.cls-3,.cls-4,.cls-5,.cls-6,.cls-7{stroke-width:15px;}.cls-2{fill:#998675;}.cls-3{fill:#afa398;}.cls-4{fill:#b5a89c;}.cls-5{fill:#af947d;}.cls-6{fill:#b79579;}.cls-7{fill:#aa998c;}.cls-8{fill:#736357;stroke-width:17px;}.cls-9{fill:url(#linear-gradient);}.cls-10{fill:#a8522c;}.cls-11{fill:#a08364;}.cls-12{fill:#af8f74;}.cls-13{fill:#8c7f74;}.cls-14{fill:#7c7169;}.cls-15{fill:#ff8039;}.cls-15,.cls-16,.cls-17,.cls-18,.cls-19{stroke:#4d4d4d;}.cls-15,.cls-16,.cls-18,.cls-19{stroke-width:9px;}.cls-16{fill:#e6e7e8;stroke-linecap:round;}.cls-17{fill:#d1d1d1;stroke-width:6px;}.cls-18{fill:#f7b33c;}.cls-19{fill:#e0a038;}</style><linearGradient id="linear-gradient" x1="857.67" y1="837.13" x2="857.67" y2="311.75" gradientUnits="userSpaceOnUse"><stop offset="0" stop-color="#f7931e"/><stop offset="1" stop-color="#d4145a"/></linearGradient></defs><title>golems</title><g id="Layer_7" data-name="Layer 7"><polygon class="cls-1" points="571.17 22.4 595.96 39.12 583.56 99.18 583.56 108.47 571.17 115.28 452.18 117.76 424.92 110.94 400.13 32.93 422.44 22.4 571.17 22.4"/><polygon class="cls-2" points="913.98 22.4 938.77 39.12 926.38 99.18 926.38 108.47 913.98 115.28 794.99 117.76 767.73 110.94 742.94 32.93 765.25 22.4 913.98 22.4"/><polygon class="cls-3" points="942.01 472.38 966.8 489.1 954.4 549.16 954.4 558.45 942.01 565.26 823.02 567.74 795.75 560.92 770.96 482.9 793.27 472.38 942.01 472.38"/><polygon class="cls-4" points="869.17 634.83 844.38 622.06 856.77 576.15 856.77 569.06 869.17 563.85 988.15 561.96 1015.42 567.16 1040.21 626.79 1017.9 634.83 869.17 634.83"/><polygon class="cls-5" points="861.79 477.94 837.01 461.23 849.4 401.16 849.4 391.88 861.79 385.06 980.78 382.59 1008.05 389.4 1032.84 467.42 1010.53 477.94 861.79 477.94"/><polygon class="cls-6" points="270.28 117.76 244.89 99.36 257.59 33.3 257.59 23.08 270.28 15.59 392.15 12.86 420.07 20.36 445.46 106.18 422.61 117.76 270.28 117.76"/><polygon class="cls-7" points="610.52 117.76 585.73 101.04 598.13 40.98 598.13 31.69 610.52 24.88 729.51 22.4 756.78 29.21 781.57 107.23 759.26 117.76 610.52 117.76"/><polygon class="cls-4" points="747.84 309.48 781.93 298.4 904.41 303.94 923.35 303.94 937.24 309.48 942.29 362.67 928.4 374.86 769.31 385.94 747.84 375.97 747.84 309.48"/><polygon class="cls-6" points="819.62 304.1 794.83 287.38 807.22 227.32 807.22 218.03 819.62 211.22 938.61 208.75 965.87 215.56 990.66 293.57 968.35 304.1 819.62 304.1"/><polygon class="cls-7" points="745.1 211.59 720.31 194.87 732.71 134.81 732.71 125.52 745.1 118.71 864.09 116.23 891.36 123.04 916.14 201.06 893.83 211.59 745.1 211.59"/><polygon class="cls-7" points="800.48 721.16 770.96 704.44 785.72 644.38 785.72 635.1 800.48 628.28 942.15 625.81 974.62 632.62 1004.14 710.64 977.58 721.16 800.48 721.16"/><polygon class="cls-2" points="755.04 625.81 779.83 642.52 767.44 702.59 767.44 711.88 755.04 718.69 636.06 721.16 608.79 714.35 584 636.33 606.31 625.81 755.04 625.81"/><polygon class="cls-6" points="232.5 7.5 257.29 24.22 244.89 84.28 244.89 93.57 232.5 100.38 113.51 102.86 86.24 96.05 61.45 18.03 83.76 7.5 232.5 7.5"/><polygon class="cls-2" points="180.18 441.7 204.97 458.42 192.57 518.48 192.57 527.77 180.18 534.58 61.19 537.06 33.92 530.25 9.13 452.23 31.45 441.7 180.18 441.7"/><polygon class="cls-4" points="114.27 612.52 89.48 599.74 101.88 553.84 101.88 546.74 114.27 541.53 233.26 539.64 260.52 544.85 285.31 604.47 263 612.52 114.27 612.52"/><polygon class="cls-6" points="114.27 455.3 89.48 438.58 101.88 378.52 101.88 369.24 114.27 362.42 233.26 359.95 260.52 366.76 285.31 444.78 263 455.3 114.27 455.3"/><polygon class="cls-7" points="33.92 365.78 9.13 349.06 21.53 289 21.53 279.71 33.92 272.9 152.91 270.43 180.18 277.24 204.97 355.25 182.66 365.78 33.92 365.78"/><polygon class="cls-6" points="193.8 609.93 218.59 626.65 206.19 686.71 206.19 696 193.8 702.81 74.81 705.29 47.54 698.48 22.75 620.46 45.06 609.93 193.8 609.93"/><polygon class="cls-6" points="432.59 725.97 407.8 709.25 420.2 649.18 420.2 639.9 432.59 633.09 551.58 630.61 578.85 637.42 603.63 715.44 581.32 725.97 432.59 725.97"/><polygon class="cls-4" points="219.32 640.8 253.41 629.72 375.89 635.26 394.83 635.26 408.72 640.8 413.77 693.98 399.88 706.17 240.78 717.25 219.32 707.28 219.32 640.8"/><polygon class="cls-6" points="114.27 263.71 89.48 250.81 101.88 204.45 101.88 197.28 114.27 192.02 233.26 190.11 260.52 195.37 285.31 255.59 263 263.71 114.27 263.71"/><polygon class="cls-2" points="325.95 99.36 350.74 115.28 338.34 172.43 338.34 181.27 325.95 187.75 206.96 190.11 179.69 183.63 154.91 109.38 177.22 99.36 325.95 99.36"/></g><g id="Kiln"><path class="cls-8" d="M1176.22,675.57c-1.31-179.48-144.46-326.07-317.29-326.78C684.21,348.08,539,496.71,539.11,678.17V934.5h637.11Z" transform="translate(-324.73 -276.89)"/><path class="cls-9" d="M1135.33,661.85c-1.14-151.9-125.92-276-276.56-276.56C706.48,384.69,579.95,510.48,580,664.06V881h555.33Z" transform="translate(-324.73 -276.89)"/><rect class="cls-10" x="214.39" y="489.26" width="637.11" height="116.73"/><polygon class="cls-2" points="770.96 552.26 792.31 534.69 869.02 543.47 880.88 543.47 889.58 552.26 892.75 636.59 884.05 655.92 784.41 673.49 770.96 657.67 770.96 552.26"/><polygon class="cls-2" points="790.64 444.35 808 430.27 867.05 440.97 876.24 441.47 882.58 449.32 881.14 521.34 873.51 537.46 795.47 548.26 785.78 534.21 790.64 444.35"/><polygon class="cls-2" points="883.29 422.55 870.92 438.3 820.5 436.19 812.81 436.97 806.45 430.37 797.39 361.72 801.42 345.37 864.51 324.46 874.53 336.48 883.29 422.55"/><polygon class="cls-11" points="767.58 247.14 776.43 228.28 828.03 218.62 835.64 216.03 843.64 221.23 868.88 288.69 868.62 306.21 809.57 342.17 796.59 332.33 767.58 247.14"/><polygon class="cls-2" points="837.01 177.65 831.61 199.81 776.87 229.23 769.07 234.73 759.03 232.63 715.47 175.25 711.68 157.74 768.53 99.3 785.15 104.1 837.01 177.65"/><polygon class="cls-2" points="736.58 86.46 742.27 106.51 709.65 147.65 705.61 154.59 696.17 155.91 632.86 121.55 621.56 108.16 642.55 42.28 658.8 41.2 736.58 86.46"/><polygon class="cls-2" points="276.24 566.86 256.95 551.74 187.68 559.3 176.97 559.3 169.11 566.86 166.26 639.41 174.11 656.04 264.09 671.16 276.24 657.55 276.24 566.86"/><polygon class="cls-12" points="247.04 453.82 231.89 439.47 181.41 449.25 173.53 449.6 168.24 457.35 170.76 529.36 177.6 545.59 244.76 557.61 252.82 543.72 247.04 453.82"/><polygon class="cls-2" points="170.91 433.35 184.94 448.21 237.77 442.62 245.89 442.87 252.15 435.85 257.16 366.72 251.85 350.68 184.21 334.17 174.47 346.86 170.91 433.35"/><polygon class="cls-13" points="168.24 309.86 178.46 330.78 236.87 342.07 245.49 345.02 254.46 339.38 282.19 265.26 281.69 245.92 214.56 205.51 200.02 216.22 168.24 309.86"/><polygon class="cls-2" points="230.11 194.56 233.46 215.15 282.71 238.96 289.63 243.59 299.25 240.86 344.76 183.25 349.7 166.37 300.73 115.22 284.7 121 230.11 194.56"/><polygon class="cls-14" points="322.54 94.46 316.55 114.5 350.88 155.64 355.13 162.59 365.08 163.91 431.72 129.55 443.61 116.16 421.52 50.28 404.42 49.2 322.54 94.46"/><polygon class="cls-2" points="628.02 32.23 639.5 50.74 621.41 105.86 619.74 114.6 611.26 119.61 541.22 108.6 526.49 99.13 526.07 22.95 541.02 15.55 628.02 32.23"/><polygon class="cls-2" points="426.42 37.02 418.25 56.14 440.08 110.71 442.48 119.41 450.5 124.07 511.13 109.79 523.11 99.61 515.38 23.03 501.4 16.27 426.42 37.02"/></g><g id="Layer_2" data-name="Layer 2"><g id="Layer_4" data-name="Layer 4"><path class="cls-15" d="M701.16,720.67l10.82,72a4.92,4.92,0,0,0,4.83,4.23h54.5a5,5,0,0,0,4.63-6.56L771,775.29a4.89,4.89,0,0,0-4.63-3.41H747.15a4.92,4.92,0,0,1-4.84-4.3l-11.53-84.72a5.09,5.09,0,0,1,.23-2.34l16.22-43.19c2-5.81-.58,40.63-1.68,46.68l-3.13,18.86c-.44,2.41-.1,8.72,2.17,9.54l22.14,8a4.83,4.83,0,0,0,5.54-1.71l7.63-10.41a5.07,5.07,0,0,0,.6-4.91l-6.52-16a5.08,5.08,0,0,1-.26-3l9.85-69.76a5,5,0,0,0-3.66-5.94l-41.65-9.92a4.93,4.93,0,0,1-3.56-3.4l-9.58-32.14a4.9,4.9,0,0,0-4.67-3.53h-39a5,5,0,0,0-4.77,3.53l-9.78,32.14a5,5,0,0,1-3.64,3.4l-42.52,9.92a5,5,0,0,0-3.73,5.94l10.06,69.76a5,5,0,0,1-.26,3l-6.65,16a5,5,0,0,0,.61,4.91l7.79,10.41a5,5,0,0,0,5.65,1.71l22.6-8c2.32-.82,2.66-7.12,2.22-9.54L655.84,684c-1.12-6.05-2.26-50-.22-44.17l15.07,40.67a5,5,0,0,1,.23,2.34l-11.77,84.72a5,5,0,0,1-4.94,4.3H634.58a5,5,0,0,0-4.73,3.41l-5,15.09a5,5,0,0,0,4.73,6.56h55.63a5,5,0,0,0,4.93-4.23Z" transform="translate(-324.73 -276.89)"/><ellipse class="cls-16" cx="972.44" cy="673.26" rx="142.08" ry="94.95" transform="translate(-300.12 1103.85) rotate(-71.43)"/><ellipse class="cls-17" cx="975.25" cy="665.34" rx="98.57" ry="57.26" transform="translate(-290.69 1101.12) rotate(-71.43)"/></g><path class="cls-18" d="M768.72,569s27.4,65.82,10.7,85.91S707.72,680,791.72,830h53V569Z" transform="translate(-324.73 -276.89)"/><path class="cls-19" d="M895.84,569s-18.5,65.82-7.23,85.91S937,680,880.31,830h-35.8V569Z" transform="translate(-324.73 -276.89)"/></g></svg>